<?xml version="1.0" standalone="no"?>
<!DOCTYPE svg PUBLIC "-//W3C//DTD SVG 20010904//EN"
 "http://www.w3.org/TR/2001/REC-SVG-20010904/DTD/svg10.dtd">
<svg version="1.0" xmlns="http://www.w3.org/2000/svg"
 width="512.000000pt" height="512.000000pt" viewBox="0 0 512.000000 512.000000"
 preserveAspectRatio="xMidYMid meet">

<g transform="translate(0.000000,512.000000) scale(0.100000,-0.100000)"
fill="#000000" stroke="none">
<path d="M1337 5109 c-129 -31 -231 -141 -257 -278 -14 -74 -14 -4468 0 -4542
22 -113 95 -209 198 -257 l57 -27 1225 0 1225 0 57 27 c103 48 176 144 198
257 14 74 14 4468 0 4542 -22 113 -95 209 -198 257 l-57 27 -1205 2 c-683 0
-1221 -3 -1243 -8z m1623 -259 c8 -14 8 -26 0 -40 -10 -19 -21 -20 -400 -20
-379 0 -390 1 -400 20 -8 14 -8 26 0 40 10 19 21 20 400 20 379 0 390 -1 400
-20z m850 -2245 l0 -1965 -1250 0 -1250 0 0 1965 0 1965 1250 0 1250 0 0
-1965z m-1193 -2096 c34 -13 80 -55 99 -91 32 -61 11 -154 -45 -201 -114 -96
-281 -17 -281 133 0 114 122 199 227 159z"/>
</g>
</svg>
