<?xml version="1.0" standalone="no"?>
<!DOCTYPE svg PUBLIC "-//W3C//DTD SVG 20010904//EN"
 "http://www.w3.org/TR/2001/REC-SVG-20010904/DTD/svg10.dtd">
<svg version="1.0" xmlns="http://www.w3.org/2000/svg"
 width="512.000000pt" height="512.000000pt" viewBox="0 0 512.000000 512.000000"
 preserveAspectRatio="xMidYMid meet">

<g transform="translate(0.000000,512.000000) scale(0.100000,-0.100000)"
fill="#000000" stroke="none">
<path d="M830 5104 c-42 -18 -86 -58 -108 -99 -15 -27 -17 -109 -20 -871 l-3
-842 -92 -4 c-112 -5 -179 -32 -235 -92 -81 -88 -77 -39 -77 -946 0 -801 0
-805 21 -851 54 -116 140 -169 291 -177 l92 -5 3 -536 c3 -588 1 -562 65 -623
65 -62 -61 -58 1793 -58 1854 0 1728 -4 1793 58 64 61 62 35 65 623 l3 536 92
5 c151 8 237 61 291 177 21 46 21 50 21 851 0 907 4 858 -77 946 -56 60 -123
87 -235 92 l-93 4 -1 302 c-1 165 -4 312 -8 326 -8 30 -994 1160 -1033 1184
-24 15 -138 16 -1270 16 -1088 -1 -1247 -3 -1278 -16z m2400 -714 l0 -530 29
-32 29 -33 466 -3 466 -3 0 -249 0 -250 -1660 0 -1660 0 0 815 0 815 1165 0
1165 0 0 -530z m-405 -1461 c86 -12 205 -45 205 -58 0 -12 -57 -211 -62 -216
-3 -3 -31 4 -64 16 -40 14 -93 23 -165 26 -94 5 -110 3 -148 -16 -71 -37 -88
-113 -37 -169 25 -28 84 -60 191 -102 167 -66 248 -126 300 -222 40 -74 47
-196 16 -279 -58 -154 -185 -237 -399 -262 -145 -17 -336 13 -440 68 -2 2 48
227 52 232 1 1 38 -11 83 -27 239 -85 433 -44 433 90 0 74 -42 110 -215 180
-170 69 -259 135 -305 227 -35 69 -40 187 -11 264 70 187 296 286 566 248z
m1300 -14 c49 -9 105 -23 125 -33 l37 -17 -30 -111 -29 -111 -62 19 c-77 24
-208 36 -294 27 -105 -11 -175 -43 -241 -108 -73 -70 -102 -140 -109 -260 -11
-193 67 -340 217 -409 44 -20 76 -27 148 -30 51 -2 108 -1 128 2 l35 7 0 134
0 135 -95 0 -95 0 0 110 0 110 235 0 235 0 0 -330 0 -330 -26 -11 c-15 -5 -68
-19 -118 -31 -125 -30 -426 -33 -526 -5 -228 64 -378 222 -426 447 -23 108
-14 269 20 375 58 180 197 321 383 386 137 49 328 62 488 34z m-2942 -222 c79
-274 109 -386 137 -518 11 -55 23 -107 26 -115 4 -8 30 77 59 190 30 113 87
309 127 435 l74 230 187 3 c146 2 187 0 187 -10 0 -31 60 -1110 65 -1175 l6
-73 -140 0 -139 0 -7 123 c-3 67 -12 293 -18 501 l-12 379 -33 -125 c-18 -68
-84 -288 -146 -489 l-113 -364 -113 0 -113 0 -49 175 c-74 266 -155 585 -174
683 -9 48 -20 87 -23 87 -4 0 -15 -190 -24 -422 -10 -233 -21 -451 -24 -485
l-6 -63 -128 0 c-120 0 -129 1 -129 19 0 33 69 1113 76 1179 l6 62 187 0 188
0 66 -227z m3037 -1953 l0 -480 -1660 0 -1660 0 0 480 0 480 1660 0 1660 0 0
-480z"/>
</g>
</svg>
